<svg version="1.1" width="64" height="64" xmlns="http://www.w3.org/2000/svg">
    <g stroke="none" fill="#ff9421">
        <path d="M 32 32 m -24 -32 a 8 8 0 0 0 -8 8 l 0 48 a 8 8 0 0 0 8 8 l 48 0 a 8 8 0 0 0 8 -8 l 0 -48 a 8 8 0 0 0 -8 -8 z"/>
    </g>
    <g stroke="#ffffff" stroke-width="8" stroke-linecap="round" stroke-linejoin="round" fill="none">
        <path d="M 32 32 m 12 20 l -12 -20 c -12 -40 -40 -12 0 0"/>
        <path d="M 32 32 m -12 20 l 12 -20 c 12 -40 40 -12 0 0"/>
    </g>
</svg>
