<svg version="1.1" width="64" height="64" xmlns="http://www.w3.org/2000/svg">
    <g stroke="none" fill="#72e02d">
        <path d="M 32 32 m -24 -32 a 8 8 0 0 0 -8 8 l 0 48 a 8 8 0 0 0 8 8 l 48 0 a 8 8 0 0 0 8 -8 l 0 -48 a 8 8 0 0 0 -8 -8 z"/>
    </g>
    <g stroke="#ffffff" stroke-width="8" stroke-linecap="round" stroke-linejoin="round" fill="#ffffff">
        <path d="M 32 32 m -20 -20 l 0 40 l 40 0 l 0 -32 l -8 -8 z"/>
        <path stroke="#72e02d" fill="#72e02d" d="M 32 32 m -12 16 l 24 0 l 0 -12 l -24 0 z"/>
        <path stroke="#72e02d" fill="#72e02d" d="M 32 32 m -8 -16 l 0 4 l 16 0 l 0 -4 z"/>
    </g>
</svg>
