<svg version="1.1" width="64" height="64" xmlns="http://www.w3.org/2000/svg">
    <g stroke="none" fill="#72e02d">
        <path d="M 32 32 m -24 -32 a 8 8 0 0 0 -8 8 l 0 48 a 8 8 0 0 0 8 8 l 48 0 a 8 8 0 0 0 8 -8 l 0 -48 a 8 8 0 0 0 -8 -8 z"/>
    </g>
    <g stroke="#ffffff" stroke-width="8" stroke-linecap="round" stroke-linejoin="round" fill="none">
        <path d="M 32 32 m 0 -20 l 0 40"/>
        <path d="M 32 32 m -17.32 -10 l 34.64 20"/>
        <path d="M 32 32 m -17.32 10 l 34.64 -20"/>
        <ellipse fill="#72e02d" cx="32" cy="32" rx="12" ry="12"/>
    </g>
</svg>
