<svg version="1.1" width="64" height="64" xmlns="http://www.w3.org/2000/svg">
    <g stroke="#72e02d" stroke-width="8" stroke-linecap="round" stroke-linejoin="round" fill="none">
        <path stroke-width="4" d="M 32 32 m -22 -30 a 8 8 0 0 0 -8 8 l 0 44 a 8 8 0 0 0 8 8 l 44 0 a 8 8 0 0 0 8 -8 l 0 -36 l -16 -16 z"/>
        <path d="M 40 32 m 0 8 l 0 -24"/>
        <path stroke-width="4" fill="#72e02d" d="M 40 32 m -12 6 l 12 12 l 12 -12 z"/>
        <path stroke-width="4" d="M 18 18 m -8 0 l 16 0"/>
        <path stroke-width="4" d="M 18 18 m 0 -8 l 0 16"/>
    </g>
</svg>
