<svg version="1.1" width="32" height="32" xmlns="http://www.w3.org/2000/svg">
    <g fill-rule="evenodd" fill="#aaa">
        <path d="M 4 30 l 2 0 c 6 0 2 -28 8 -28 l -4 0 c -6 0 -2 28 -8 28"/>
        <path d="M 10 2 l 4 0 l 0 2 l -4 0 l 0 -2"/>
        <path d="M 2 30 l 4 0 l 0 -2 l -4 0 l 0 2"/>
        <path d="M 2 12 l 12 0 l 0 2 l -12 0 l 0 -2"/>
        <path d="M 16 16 l 2 0 c 10 0 4 14 12 14 l -2 0 c -10 0 -4 -14 -12 -14"/>
        <path d="M 16 30 l 2 0 l 12 -14 l -2 0 l -12 14"/>
    </g>
</svg>
