<svg version="1.1" width="32" height="32" xmlns="http://www.w3.org/2000/svg">
    <g fill-rule="evenodd" fill="#aaa">
        <path d="M 7 13 L 2 14 L 2 18 L 7 19 L 8.902 22.294 L 7.268 27.124 L 10.732 29.124 L 14.098 25.294 L 17.902 25.294 L 21.268 29.124 L 24.732 27.124 L 23.098 22.294 L 25 19 L 30 18 L 30 14 L 25 13 L 23.098 9.706 L 24.732 4.876 L 21.268 2.876 L 17.902 6.706 L 14.098 6.706 L 10.732 2.876 L 7.268 4.876 L 8.902 9.706 L 7 13 M 11 16 a 5 5 0 0 0 10 0 a 5 5 0 0 0 -10 0"/>
    </g>
</svg>
